<svg width="299" height="300" viewBox="0 0 299 300" xmlns="http://www.w3.org/2000/svg"><title>codepen</title><path d="M298.794 102.82c-.523-3.663-2.53-6.977-5.58-8.983L156.816 2.877c-4.273-2.877-9.94-2.877-14.215 0L6.12 93.838C2.63 96.192.45 100.29.45 104.477v90.96c0 4.185 2.18 8.37 5.67 10.64l136.395 90.958c4.273 2.878 9.942 2.878 14.215 0l136.483-90.872c3.488-2.268 5.756-6.454 5.756-10.64v-90.96c-.09-.61-.09-1.133-.176-1.743 0-.175.087.61 0 0zM162.486 37.587l100.465 66.977-44.912 30-55.64-37.238v-59.74h.088zm-25.64 0v59.826l-55.64 37.238-44.912-30 100.552-67.063zM26.09 128.547L58.185 150 26.09 171.453v-42.906zm110.756 133.866L36.38 195.436l44.914-30 55.64 37.15v59.827h-.088zm12.82-82.064L104.316 150l45.35-30.35 45.35 30.35-45.35 30.35zm12.82 82.063v-59.826l55.64-37.15 44.912 30-100.552 66.976zm110.756-90.96L241.15 150l32.092-21.453v42.906z" fill="#000" fill-rule="evenodd"/></svg>