<?xml version="1.0" encoding="UTF-8"?>
<svg width="305px" height="252px" viewBox="0 0 305 252" version="1.1" xmlns="http://www.w3.org/2000/svg" xmlns:xlink="http://www.w3.org/1999/xlink">
    <!-- Generator: Sketch 59.1 (86144) - https://sketch.com -->
    <title>Shape</title>
    <desc>Created with Sketch.</desc>
    <g id="Page-1" stroke="none" stroke-width="1" fill="none" fill-rule="evenodd">
        <g id="Dragon" transform="translate(-1.000000, -23.000000)" fill="#000000" fill-rule="nonzero">
            <path d="M300.2,125.7 L282.5,106.9 C282.5,106.9 256.1,83.2 244.3,73.9 C222.1,51.1 201.3,74 201,74.3 C200.7,74.6 186.2,84.9 175.1,90.8 C164,96.7 164.2,89.5 163.6,88.5 C163,87.5 160.1,72.4 160.1,72.4 L159.7,65.9 C159.7,65.9 159.9,57.1 159.4,54.1 C158.9,51.1 160.8,48.9 161.7,54.3 C162.6,59.7 163.9,57.5 163.9,56.7 C163.9,55.9 164.3,50.8 163.5,50 C162.8,49.2 160.7,45 161.6,43.2 C162.5,41.3 162.3,40.7 161.6,39.8 C160.9,38.8 158.6,37.9 158.1,36.5 C157.5,35.1 157.8,30.4 157.3,28.6 C153.2,17.5 149.7,25.9 149.5,29.9 C149.3,33.9 147.6,36.9 146.5,38.5 C143.6,39.9 144.6,41.7 145,42.4 C145.3,43.1 145,44.9 144.2,47 C141.6,52.3 143.4,60.3 143.9,58.4 C144.9,53.3 147.3,49.3 147,53.8 C146.7,58.3 148,59.9 147,67.7 C146,75.5 143.6,81.7 143.6,84.1 C143.2,95 139.9,92.9 134.1,91.5 C124.6,89.2 108.9,75.8 102.9,72.3 C81.1,54.3 63.6,72.8 63.6,72.8 C37,88.3 1.2,132.5 1.2,132.5 C6.55031585e-15,134 4,134.8 6.5,132.4 C10.9,126 45.3,111.6 49.7,109.9 C62.7,106.9 62.3,126.3 63.7,124.5 C68.6,114.6 77.3,113.6 80.8,116.9 C84.3,120.2 84.3,122.5 89.2,136.8 C94.1,151.2 94.5,149.3 96.8,146.7 C108.1,129.8 114.3,140.1 114.3,140.1 C114.3,140.1 123.6,151.2 127.3,161.1 C131,171 132,175.5 138.2,167.7 C144.4,159.9 142.5,166.7 143.3,170.4 C143.3,185 154.5,203.1 154.5,203.1 C154.5,203.1 148.8,213.6 149.8,224.1 C150.8,234.6 157,241.1 157.6,244.1 C160.8,258.5 154.2,262.4 154.2,262.4 C154.2,262.4 151.3,265.9 150.7,265.6 C147.2,262.8 146.4,266 144.9,267.5 C139.6,272 128.2,272.8 131.5,273.1 C151.2,279.5 152.3,267.8 152.3,267.8 C152.3,267.8 156.6,265.9 160.9,261.2 C167.7,251.1 165,246.8 159.7,232.2 C154.4,217.6 163,212.7 163,212.7 C163,212.7 163.4,222 186,226.5 C208.6,231 214.2,213.3 214.8,210.5 C215.4,207.6 215,190.8 199.2,187.5 C183.4,184.2 168.2,194.7 168.2,194.7 C168.2,194.7 165.5,192 164.2,178.1 C163,164.2 164.8,164.2 167.3,167.3 C175.2,177 175.5,168.7 175.5,168.7 C175.5,168.7 181.8,155.1 185.4,150.5 C196.8,132.3 201.9,137.1 206.5,142.7 C214.8,158 214.5,146.2 214.5,146.2 C214.5,146.2 215.6,139.1 221.4,125.7 C227.3,112.3 231.7,114.6 236.8,118 C245.7,127.1 244.2,125.6 244.8,120.8 C249.4,106.2 254.5,110.2 258.7,110.8 C262.9,111.4 261.2,110.3 289.8,128.1 C318.4,145.9 300.2,125.7 300.2,125.7 Z M191.4,200.4 C198.5,200.4 204.2,202.8 204.2,205.8 C204.2,208.8 198.5,211.2 191.4,211.2 C184.3,211.2 178.6,208.8 178.6,205.8 C178.6,202.8 184.4,200.4 191.4,200.4 Z" id="Shape"></path>
        </g>
    </g>
</svg>