<svg width="308" height="300" xmlns="http://www.w3.org/2000/svg"><path d="M153.88.577C69.32.577.666 69.147.666 153.79c0 67.666 43.928 125.11 104.752 145.386 7.665 1.4 10.138-3.297 10.138-7.335v-28.598c-42.61 9.313-51.51-18.05-51.51-18.05-6.924-17.72-16.98-22.417-16.98-22.417-13.928-9.478 1.072-9.313 1.072-9.313 15.412 1.07 23.49 15.824 23.49 15.824 13.68 23.406 35.85 16.648 44.587 12.692 1.4-9.89 5.357-16.648 9.725-20.522-34.038-3.874-69.807-16.978-69.807-75.742 0-16.73 6.016-30.412 15.824-41.126-1.566-3.874-6.84-19.45 1.483-40.55 0 0 12.857-4.12 42.116 15.742 12.197-3.38 25.302-5.11 38.324-5.192 13.022.082 26.126 1.73 38.406 5.192 29.26-19.78 42.116-15.742 42.116-15.742 8.324 21.1 3.132 36.676 1.483 40.55 9.808 10.714 15.742 24.396 15.742 41.126 0 58.846-35.852 71.786-69.972 75.577 5.522 4.78 10.55 14.095 10.55 28.353v42.033c0 4.038 2.472 8.82 10.22 7.335 60.823-20.274 104.67-77.72 104.67-145.384C307.094 69.148 238.44.576 153.88.576z" fill-rule="evenodd"/></svg>