<svg width="300" height="300" xmlns="http://www.w3.org/2000/svg"><path d="M0 0h300v300H0V0zm78.881 250.702v-.003c6.645 14.097 19.736 25.777 42.289 25.777 24.972 0 42.089-13.292 42.089-42.491v-96.256h-28.192v95.857c0 14.096-5.842 17.72-15.106 17.72-9.664 0-13.693-6.645-18.123-14.498l-22.957 13.894zm99.69-3.022v.002c8.255 16.312 25.171 28.797 51.35 28.797 26.783 0 46.719-13.893 46.719-39.27 0-23.559-13.492-34.03-37.457-44.3l-7.047-3.02c-12.082-5.237-17.318-8.662-17.318-17.12 0-6.846 5.236-12.082 13.493-12.082 8.055 0 13.289 3.424 18.123 12.083l21.951-14.098c-9.262-16.311-22.15-22.555-40.073-22.555-25.173 0-41.283 16.11-41.283 37.256 0 22.957 13.492 33.832 33.832 42.489l7.046 3.023c12.889 5.637 20.541 9.061 20.541 18.727 0 8.055-7.448 13.896-19.13 13.896-13.895 0-21.748-7.25-27.792-17.118l-22.955 13.29z" fill="#F7DF1E" fill-rule="nonzero"/></svg>