<svg width="298" height="300" viewBox="0 0 298 300" xmlns="http://www.w3.org/2000/svg"><title>linkedin</title><path d="M72.766 37.66c0 20.212-16.277 36.702-36.383 36.702S0 57.98 0 37.66C0 17.447 16.277.957 36.383.957s36.383 16.49 36.383 36.703zm-5.32 62.66H5.957v198.723h61.49V100.32zm98.3 0h-58.937v198.723h58.935V194.787c0-27.978 12.872-44.574 37.446-44.574 22.66 0 33.512 15.957 33.512 44.574v104.256h61.17V173.19c0-53.19-30.106-78.935-72.34-78.935-42.128 0-59.894 32.873-59.894 32.873v-26.81h.107z" fill="#000" fill-rule="evenodd"/></svg>