<svg width="301" height="299" xmlns="http://www.w3.org/2000/svg"><defs><linearGradient x1="12.959%" y1="12.039%" x2="79.639%" y2="78.201%" id="a"><stop stop-color="#387EB8" offset="0%"/><stop stop-color="#366994" offset="100%"/></linearGradient><linearGradient x1="19.128%" y1="20.579%" x2="90.742%" y2="88.429%" id="b"><stop stop-color="#FFE052" offset="0%"/><stop stop-color="#FFC331" offset="100%"/></linearGradient></defs><g fill-rule="nonzero" fill="none"><path d="M149.313.085c-76.273 0-71.51 33.076-71.51 33.076l.084 34.268h72.786v10.289H48.978S.17 72.182.17 149.14c0 76.961 42.6 74.232 42.6 74.232h25.423V187.66s-1.37-42.6 41.92-42.6h72.19s40.56.655 40.56-39.199V39.965s6.16-39.88-73.551-39.88zm-40.134 23.044a13.082 13.082 0 0 1 13.094 13.095 13.082 13.082 0 0 1-13.094 13.094 13.082 13.082 0 0 1-13.094-13.094 13.082 13.082 0 0 1 13.094-13.095z" fill="url(#a)"/><path d="M151.479 298.972c76.273 0 71.51-33.077 71.51-33.077l-.084-34.267h-72.787V221.34h101.695s48.807 5.535 48.807-71.426c0-76.96-42.6-74.23-42.6-74.23h-25.424v35.711s1.371 42.6-41.92 42.6h-72.19s-40.559-.655-40.559 39.2v65.898s-6.159 39.879 73.55 39.879h.002zm40.134-23.043a13.082 13.082 0 0 1-13.094-13.094 13.082 13.082 0 0 1 13.094-13.095 13.082 13.082 0 0 1 13.094 13.094 13.082 13.082 0 0 1-13.094 13.094v.001z" fill="url(#b)"/></g></svg>