<svg width="287" height="300" viewBox="0 0 287 300" xmlns="http://www.w3.org/2000/svg"><title>sun</title><path d="M285.223 191.21l-30.115-41.488 30.115-41.486c1.002-1.45 1.223-3.066.668-4.85-.45-1.675-1.563-2.79-3.346-3.347l-48.846-16.06V32.788c0-1.783-.727-3.233-2.18-4.348-1.67-1.114-3.29-1.338-4.848-.67l-48.848 15.725L147.71 2.008C146.706.67 145.257 0 143.36 0c-1.895 0-3.345.67-4.35 2.008l-30.113 41.487L60.05 27.77c-1.56-.668-3.18-.444-4.853.67-1.45 1.116-2.174 2.565-2.174 4.35v51.19L4.175 100.04c-1.784.558-2.9 1.673-3.345 3.346-.556 1.784-.334 3.4.67 4.85l30.112 41.486L1.5 191.212c-1.004 1.336-1.226 2.953-.67 4.85.446 1.668 1.56 2.785 3.345 3.347l48.848 16.057v51.19c0 1.783.724 3.235 2.174 4.35 1.674 1.115 3.292 1.337 4.852.67l48.847-15.725 30.114 41.487c1.115 1.447 2.565 2.173 4.35 2.173 1.784 0 3.235-.726 4.35-2.174l30.11-41.488 48.852 15.725c1.558.67 3.176.445 4.846-.67 1.453-1.115 2.18-2.567 2.18-4.35v-51.19l48.846-16.058c1.783-.56 2.897-1.678 3.347-3.348.56-1.897.335-3.514-.667-4.85zm-53.113-4.097c-5.075 11.877-11.933 22.136-20.575 30.78-8.644 8.643-18.903 15.503-30.78 20.578-11.876 5.074-24.342 7.613-37.39 7.613-13.05 0-25.51-2.54-37.39-7.612-11.876-5.076-22.137-11.934-30.78-20.576-8.642-8.645-15.5-18.905-20.576-30.78-5.075-11.88-7.613-24.342-7.613-37.392 0-13.05 2.538-25.51 7.612-37.388 5.072-11.877 11.933-22.138 20.575-30.782C83.84 72.91 94.1 66.05 105.975 60.977c11.878-5.076 24.34-7.612 37.39-7.612 13.046 0 25.514 2.536 37.39 7.612 11.877 5.073 22.136 11.933 30.78 20.575 8.642 8.644 15.5 18.905 20.575 30.782 5.073 11.878 7.612 24.34 7.612 37.388 0 13.05-2.54 25.512-7.612 37.39z" fill="#000" fill-rule="evenodd"/></svg>