<?xml version="1.0" encoding="UTF-8"?>
<svg width="297px" height="297px" viewBox="0 0 297 297" version="1.1" xmlns="http://www.w3.org/2000/svg" xmlns:xlink="http://www.w3.org/1999/xlink">
    <!-- Generator: Sketch 51.3 (57544) - http://www.bohemiancoding.com/sketch -->
    <title>Swift</title>
    <desc>Created with Sketch.</desc>
    <defs></defs>
    <g id="Page-1" stroke="none" stroke-width="1" fill="none" fill-rule="evenodd">
        <g id="Swift" fill="#F05138" fill-rule="nonzero">
            <path d="M296.9335,82.2505002 C296.956,85.797 296.9545,89.3445 296.954,92.8905 L296.954,204.0625 C296.954,207.612 296.956,211.156 296.933,214.7055 C296.915,217.6925 296.882,220.677 296.8,223.662 C296.626,230.1695 296.2415,236.734 295.0855,243.1655 C293.9125,249.6985 291.995,255.7795 288.973,261.714 C286.007,267.545 282.1285,272.8775 277.5025,277.502 C272.8775,282.13 267.543,286.0075 261.711,288.977 C255.78,291.9955 249.703,293.9105 243.1745,295.0835 C236.7365,296.241 230.1735,296.6265 223.6645,296.8005 C220.676,296.88 217.6905,296.9155 214.703,296.9325 C211.1575,296.958 207.609,296.9545 204.064,296.9545 L92.8909998,296.9545 C89.3425002,296.9545 85.7980002,296.958 82.2529998,296.9325 C79.2645,296.9155 76.2754998,296.88 73.2915,296.8005 C66.7840002,296.6265 60.216,296.2415 53.782,295.0835 C47.252,293.9105 41.1755,291.996 35.244,288.977 C29.4115,286.007 24.0755,282.13 19.452,277.502 C14.825,272.878 10.947,267.545 7.98049998,261.714 C4.95850002,255.7795 3.0435,249.698 1.86949998,243.1655 C0.714,236.734 0.33049998,230.1695 0.15550002,223.662 C0.0735,220.677 0.039,217.692 0.0195,214.7055 C-0.00349998,211.156 4.2150555e-14,207.612 4.2150555e-14,204.0625 L4.2150555e-14,141.3 L4.2150555e-14,92.8905 C4.2150555e-14,89.3445 -0.003,85.797 0.0195,82.2499998 C0.039,79.2634998 0.0735,76.2784998 0.15550002,73.2885 C0.33049998,66.7845 0.71449998,60.2215002 1.86949998,53.787 C3.0435,47.2525 4.95850002,41.1765 7.98049998,35.2405 C10.947,29.411 14.825,24.0765 19.452,19.4505 C20.608,18.294 21.8085,17.1845 23.05,16.124 C26.7745,12.943 30.8695,10.2055 35.2435,7.97950002 C36.7265,7.22500002 38.2185,6.53899998 39.724,5.91700002 C44.241,4.04950002 48.884,2.75149998 53.7805,1.87150002 C58.6065,1.002 63.5080002,0.56950002 68.4019998,0.33349998 C70.0335,0.255 71.664,0.198 73.2910002,0.15400002 C76.275,0.07300002 79.2640002,0.039 82.2525,0.02050002 C85.7974998,0 89.3419998,0 92.8905,0 L125.456,0 L204.064,0 C207.609,0 211.1575,0 214.7035,0.01999998 C217.691,0.03850002 220.6765,0.07249998 223.665,0.15349998 C230.174,0.32950002 236.737,0.71149998 243.175,1.87099998 C249.7035,3.04399998 255.7805,4.96099998 261.7115,7.97950002 C267.5435,10.9475 272.878,14.825 277.503,19.451 C282.129,24.077 286.007,29.4115 288.9735,35.241 C291.9955,41.177 293.913,47.253 295.086,53.7875 C296.242,60.222 296.6265,66.7849998 296.8005,73.2889998 C296.883,76.2790002 296.916,79.2640002 296.9335,82.2505002 Z M235.303,183.3035 C235.296,183.2945 235.2895,183.288 235.282,183.2795 C235.6105,182.1615 235.9495,181.0505 236.237,179.9045 C248.562,130.8 218.4815,72.7450002 167.579,42.1775 C189.8855,72.417 199.7485,109.044 190.9855,141.075 C190.204,143.932 189.2645,146.674 188.226,149.339 C187.099,148.5985 185.679,147.758 183.772,146.7065 C183.772,146.7065 133.1375,115.443 78.258,60.1455 C76.818,58.694 107.522,104.0305 142.3675,140.845 C125.9505,131.6315 80.1985002,98.343 51.2345,71.8335 C54.793,77.7679998 59.0255,83.4825 63.678,88.9840002 C87.8655,119.6585 119.409,157.506 157.1995,186.5685 C130.6475,202.8175 93.129,204.081 55.7735,186.5855 C46.534,182.2555 37.848,177.031 29.8075,171.095 C45.62,196.3875 69.9735,218.2095 99.6139998,230.949 C134.9615,246.1395 170.112,245.1095 196.292,231.198 L196.2715,231.228 C196.391,231.1525 196.543,231.07 196.667,230.9935 C197.742,230.4155 198.809,229.827 199.8525,229.2055 C212.431,222.6765 237.276,216.0525 250.6115,241.9995 C253.8775,248.3495 260.8175,214.6975 235.303,183.3035 Z" id="Combined-Shape"></path>
        </g>
    </g>
</svg>