<svg width="158" height="124" viewBox="0 0 158 124" xmlns="http://www.w3.org/2000/svg"><title>Shape</title><path d="M137.325 20.276c6.353-3.81 11.233-9.84 13.53-17.026a61.605 61.605 0 0 1-19.542 7.468A30.73 30.73 0 0 0 108.85 1C91.857 1 78.077 14.778 78.077 31.773c0 2.412.272 4.76.797 7.014C53.297 37.503 30.62 25.25 15.444 6.633a30.627 30.627 0 0 0-4.168 15.47c0 10.678 5.433 20.098 13.69 25.616a30.65 30.65 0 0 1-13.938-3.85c-.003.127-.003.256-.003.386 0 14.91 10.608 27.348 24.686 30.176a30.82 30.82 0 0 1-13.896.527c3.916 12.225 15.28 21.123 28.748 21.37-10.53 8.255-23.8 13.174-38.22 13.174a62.63 62.63 0 0 1-7.34-.43c13.62 8.73 29.795 13.827 47.174 13.827 56.605 0 87.56-46.892 87.56-87.56 0-1.333-.03-2.66-.09-3.98A62.53 62.53 0 0 0 155 15.43a61.517 61.517 0 0 1-17.675 4.846z" stroke="#00ACED" stroke-width="2" fill="none"/></svg>