<svg width="370" height="300" xmlns="http://www.w3.org/2000/svg"><path d="M369.824 35.58c-13.605 6.048-28.14 10.118-43.488 11.862 15.58-9.42 27.674-24.186 33.256-41.86a150.22 150.22 0 0 1-48.024 18.37C297.73 9.303 278.08 0 256.336 0c-48.837 0-84.768 45.58-73.72 92.907-62.908-3.14-118.722-33.256-156.048-79.07C6.8 47.79 16.336 92.327 49.94 114.884c-12.44-.35-24.07-3.837-34.302-9.42-.814 35.117 24.302 67.908 60.698 75.117-10.698 2.908-22.326 3.606-34.186 1.28 9.65 30.117 37.558 51.977 70.697 52.56C80.987 259.3 40.987 270.464.754 265.813c33.49 21.512 73.256 33.953 116.047 33.953 140.466 0 219.885-118.72 215.117-225.116 15-10.58 27.79-23.836 37.907-39.07z" fill-rule="evenodd"/></svg>